<?xml version="1.0" standalone="no"?>
<!DOCTYPE svg PUBLIC "-//W3C//DTD SVG 20010904//EN"
 "http://www.w3.org/TR/2001/REC-SVG-20010904/DTD/svg10.dtd">
<svg version="1.0" xmlns="http://www.w3.org/2000/svg"
 width="2000.000000pt" height="2000.000000pt" viewBox="0 0 2000.000000 2000.000000"
 preserveAspectRatio="xMidYMid meet">

<g transform="translate(0.000000,2000.000000) scale(0.100000,-0.100000)"
fill="#000000" stroke="none">
<path d="M3680 19790 l0 -60 -1690 0 -1690 0 0 -1645 0 -1645 -75 0 -75 0 0
-7120 0 -7120 345 -2 345 -3 0 -957 0 -958 1407 1 1408 1 -145 33 c-703 159
-1273 437 -1805 880 -200 166 -453 424 -560 570 -17 22 -32 42 -35 45 -3 3
-18 22 -33 43 l-28 37 77 113 c643 939 1552 1653 2569 2017 66 24 122 45 123
46 2 1 -32 45 -75 96 -208 245 -342 447 -475 713 -303 603 -454 1246 -498
2115 -33 663 -35 820 -35 2980 0 2158 2 2331 35 3005 21 421 60 752 126 1066
114 545 324 1060 603 1473 235 348 620 735 971 975 355 243 799 441 1262 561
728 188 1340 220 4268 220 2177 0 2919 -17 3495 -81 900 -99 1653 -384 2225
-841 444 -356 780 -766 1020 -1248 212 -425 348 -877 424 -1410 42 -292 55
-465 87 -1200 16 -358 24 -3952 10 -4550 -12 -491 -24 -805 -41 -1090 -59
-943 -289 -1712 -695 -2325 -311 -469 -763 -896 -1239 -1169 -443 -255 -990
-435 -1582 -521 -291 -42 -508 -58 -1144 -85 -205 -9 -1895 -27 -3028 -33
l-464 -2 83 -90 c599 -654 1051 -1473 1299 -2358 l33 -117 1197 0 c658 0 2439
3 3958 7 l2762 6 0 559 0 558 385 0 385 0 0 460 0 460 339 0 339 0 7 3560 c4
1958 4 5162 0 7120 l-7 3560 -64 0 -64 0 0 1145 0 1145 -660 0 -660 0 0 553 0
554 -2762 6 c-1519 4 -4831 7 -7360 7 l-4598 0 0 -60z"/>
<path d="M7860 15953 c-1119 -29 -1529 -75 -1974 -220 -431 -140 -716 -312
-1011 -608 -251 -252 -401 -477 -530 -800 -68 -168 -116 -324 -156 -502 -123
-550 -149 -1204 -149 -3778 0 -2511 25 -3226 131 -3760 57 -287 134 -522 248
-760 124 -258 238 -416 458 -638 252 -253 494 -412 823 -541 89 -34 138 -47
215 -56 255 -28 572 -89 800 -154 109 -31 140 -35 330 -45 505 -27 738 -32
1915 -41 2159 -15 3644 2 4220 50 408 35 768 108 1057 216 383 143 647 315
924 601 282 292 460 605 588 1034 132 438 174 850 201 1974 13 526 13 3646 0
4165 -21 869 -50 1275 -111 1600 -80 420 -235 818 -427 1095 -116 168 -299
365 -474 511 -304 254 -715 436 -1203 533 -356 71 -696 97 -1605 121 -307 8
-3979 11 -4270 3z m6290 -1242 c145 -49 231 -102 341 -211 161 -159 238 -320
259 -538 38 -415 -221 -796 -625 -918 -79 -24 -107 -27 -235 -28 -167 -1 -234
13 -366 74 -109 50 -185 104 -265 187 -81 83 -119 139 -169 246 -60 130 -74
200 -74 362 0 112 5 156 22 219 67 245 231 444 457 556 149 74 227 90 410 87
138 -3 158 -6 245 -36z m-3810 -991 c1272 -114 2410 -886 2989 -2028 211 -418
337 -843 386 -1309 21 -195 21 -571 0 -766 -90 -856 -462 -1640 -1065 -2248
-300 -302 -606 -522 -995 -714 -541 -268 -1049 -386 -1655 -386 -617 0 -1152
128 -1700 407 -703 357 -1270 927 -1629 1634 -274 541 -402 1077 -402 1690 0
431 58 792 191 1190 427 1281 1537 2241 2870 2484 74 13 182 29 240 35 58 6
119 13 135 15 73 8 531 5 635 -4z"/>
<path d="M9760 12413 c-452 -50 -861 -211 -1230 -487 -124 -92 -365 -334 -460
-461 -323 -432 -490 -931 -490 -1465 0 -652 248 -1249 710 -1710 364 -365 796
-588 1317 -682 112 -20 160 -23 393 -23 297 0 401 13 648 81 947 259 1656
1091 1761 2066 14 125 14 411 0 536 -37 341 -171 727 -354 1017 -270 429 -690
781 -1150 963 -310 123 -581 173 -918 170 -106 0 -208 -3 -227 -5z"/>
<path d="M3680 216 l0 -66 1288 2 1287 2 -795 7 c-805 6 -959 13 -1330 54
-131 15 -382 51 -427 62 -22 5 -23 3 -23 -61z"/>
</g>
</svg>
