<?xml version="1.0" standalone="no"?>
<!DOCTYPE svg PUBLIC "-//W3C//DTD SVG 20010904//EN"
 "http://www.w3.org/TR/2001/REC-SVG-20010904/DTD/svg10.dtd">
<svg version="1.0" xmlns="http://www.w3.org/2000/svg"
 width="1029.000000pt" height="1024.000000pt" viewBox="0 0 1029.000000 1024.000000"
 preserveAspectRatio="xMidYMid meet">

<g transform="translate(0.000000,1024.000000) scale(0.100000,-0.100000)"
fill="#000000" stroke="none">
<path d="M1 9578 c1 -608 2 -656 15 -583 38 213 107 388 222 565 65 101 86
127 204 247 222 226 519 376 835 422 35 5 -203 9 -609 10 l-668 1 1 -662z"/>
<path d="M9055 10224 c601 -101 1092 -572 1219 -1169 13 -65 14 -23 15 558 l1
627 -657 -1 c-588 -1 -649 -2 -578 -15z"/>
<path d="M1365 10178 c-492 -56 -933 -366 -1160 -817 -48 -97 -109 -282 -132
-401 -17 -91 -18 -271 -18 -3845 0 -3574 1 -3754 18 -3845 90 -471 383 -863
802 -1069 183 -90 310 -128 515 -151 67 -8 1200 -10 3830 -8 l3735 3 100 23
c542 125 946 483 1115 991 82 243 74 -162 77 3991 3 2611 1 3735 -7 3805 -38
349 -181 646 -430 895 -248 249 -548 393 -892 430 -124 13 -7436 12 -7553 -2z
m3983 -1479 c415 -45 803 -231 1103 -529 572 -568 709 -1457 334 -2168 -284
-536 -789 -892 -1386 -977 -133 -19 -375 -19 -508 0 -529 75 -991 366 -1287
810 -362 544 -411 1235 -129 1823 340 710 1091 1127 1873 1041z m-1707 -3753
c78 -17 134 -44 249 -121 217 -146 527 -261 855 -317 175 -29 540 -32 715 -5
345 53 645 165 901 335 162 108 283 139 425 109 239 -51 404 -251 406 -492 2
-179 -73 -317 -235 -433 -273 -196 -655 -365 -1035 -457 l-114 -28 579 -578
c602 -603 622 -625 658 -744 21 -67 20 -205 -1 -275 -37 -125 -121 -235 -230
-300 -136 -82 -335 -91 -472 -21 -76 39 -151 107 -677 621 -296 289 -541 525
-545 525 -4 0 -230 -238 -503 -530 -319 -340 -518 -545 -556 -571 -204 -143
-467 -120 -642 55 -111 112 -155 230 -147 391 6 94 30 169 78 242 16 25 272
299 569 609 297 310 538 565 537 567 -2 1 -72 20 -157 41 -310 78 -586 188
-835 331 -234 135 -319 210 -379 335 -95 196 -55 418 102 574 127 125 285 172
454 137z"/>
<path d="M5000 7606 c-243 -52 -439 -205 -541 -422 -53 -111 -72 -197 -72
-324 0 -131 20 -218 78 -335 97 -198 272 -344 485 -402 90 -25 299 -24 389 1
471 130 698 646 479 1086 -34 68 -61 104 -138 181 -82 83 -108 103 -190 143
-52 25 -122 53 -155 62 -83 22 -254 27 -335 10z"/>
<path d="M1 658 l-1 -658 628 1 c573 1 621 2 559 15 -272 59 -541 203 -741
399 -226 222 -373 503 -430 820 -13 73 -14 24 -15 -577z"/>
<path d="M10280 1217 c0 -38 -56 -226 -94 -317 -190 -448 -594 -781 -1076
-884 -58 -13 -1 -14 558 -15 l622 -1 0 620 c0 341 -2 620 -5 620 -3 0 -5 -10
-5 -23z"/>
</g>
</svg>
