<?xml version="1.0" standalone="no"?>
<!DOCTYPE svg PUBLIC "-//W3C//DTD SVG 20010904//EN"
 "http://www.w3.org/TR/2001/REC-SVG-20010904/DTD/svg10.dtd">
<svg version="1.0" xmlns="http://www.w3.org/2000/svg"
 width="200.000000pt" height="200.000000pt" viewBox="0 0 200.000000 200.000000"
 preserveAspectRatio="xMidYMid meet">

<g transform="translate(0.000000,200.000000) scale(0.100000,-0.100000)"
fill="#000000" stroke="none">
<path d="M0 1000 l0 -1000 1000 0 1000 0 0 1000 0 1000 -1000 0 -1000 0 0
-1000z m1165 769 c320 -39 457 -140 511 -374 27 -114 27 -429 0 -530 -71 -269
-217 -357 -624 -374 l-163 -6 -82 -85 c-45 -47 -102 -108 -127 -135 l-45 -50
-5 155 -5 155 -68 35 c-126 65 -178 124 -221 252 -66 195 -51 551 29 707 47
93 154 174 285 216 127 41 340 55 515 34z"/>
<path d="M978 1544 c-5 -4 -8 -15 -8 -24 0 -12 16 -19 64 -27 189 -32 299
-145 325 -335 8 -62 21 -85 41 -73 9 5 11 30 8 79 -13 195 -168 356 -368 381
-30 4 -58 3 -62 -1z"/>
<path d="M645 1525 c-43 -15 -81 -48 -102 -89 -24 -46 -11 -107 46 -222 118
-237 299 -414 549 -536 69 -33 90 -39 124 -35 68 9 158 98 158 157 0 33 -31
66 -124 131 -90 64 -122 65 -177 9 -46 -46 -64 -49 -127 -17 -100 49 -202 173
-202 246 0 26 8 41 40 70 51 47 52 78 4 151 -42 65 -109 136 -134 143 -9 2
-34 -1 -55 -8z"/>
<path d="M1004 1425 c-9 -22 2 -32 43 -39 21 -3 61 -17 90 -30 61 -29 95 -80
113 -168 9 -47 15 -58 31 -58 16 0 19 7 19 41 0 74 -21 120 -80 181 -43 43
-69 60 -110 72 -67 20 -99 20 -106 1z"/>
<path d="M1037 1323 c-17 -16 -4 -33 31 -43 46 -12 67 -33 79 -80 12 -46 47
-50 51 -5 3 38 -28 89 -70 115 -33 20 -78 26 -91 13z"/>
</g>
</svg>
