<?xml version="1.0" standalone="no"?>
<!DOCTYPE svg PUBLIC "-//W3C//DTD SVG 20010904//EN"
 "http://www.w3.org/TR/2001/REC-SVG-20010904/DTD/svg10.dtd">
<svg version="1.0" xmlns="http://www.w3.org/2000/svg"
 width="2000.000000pt" height="2000.000000pt" viewBox="0 0 2000.000000 2000.000000"
 preserveAspectRatio="xMidYMid meet">

<g transform="translate(0.000000,2000.000000) scale(0.100000,-0.100000)"
fill="#000000" stroke="none">
<path d="M0 11100 l0 -8900 60 0 60 0 0 -1100 0 -1100 9140 0 9140 0 0 190 0
190 740 0 740 0 0 910 0 910 60 0 60 0 0 8710 0 8710 -800 0 -800 0 0 190 0
190 -9200 0 -9200 0 0 -8900z m10070 2660 c300 -17 557 -59 710 -116 180 -67
293 -198 340 -396 40 -168 46 -352 27 -896 -26 -734 -39 -1533 -27 -1707 21
-317 83 -493 215 -614 92 -83 169 -87 305 -15 247 129 632 613 1082 1359 270
448 475 853 713 1416 47 108 95 226 109 261 35 93 63 146 113 210 50 63 98 99
164 121 54 18 471 25 1794 29 798 2 854 1 920 -16 145 -38 242 -110 265 -196
90 -335 -286 -1046 -1169 -2210 -85 -113 -243 -320 -351 -460 -419 -544 -533
-704 -616 -867 -63 -124 -86 -202 -87 -298 -1 -107 28 -191 106 -309 69 -103
338 -378 712 -728 687 -641 1153 -1198 1355 -1619 100 -209 87 -383 -39 -509
-60 -60 -118 -94 -237 -136 -170 -61 -188 -62 -1104 -73 -459 -6 -911 -13
-1005 -17 -265 -9 -418 24 -665 142 -306 147 -521 339 -1042 930 -287 326
-436 481 -549 571 -159 125 -267 175 -384 175 -235 2 -416 -218 -520 -629 -30
-121 -55 -321 -65 -528 -11 -211 -25 -303 -59 -380 -49 -112 -179 -197 -361
-240 -53 -12 -156 -15 -565 -15 -502 0 -646 6 -850 36 -671 96 -1311 338
-1910 722 -465 299 -876 670 -1306 1182 -890 1058 -1882 2734 -2787 4710 -109
239 -130 290 -147 362 -52 222 21 325 274 385 56 13 220 16 1081 24 558 4
1029 6 1045 3 123 -22 278 -97 351 -171 60 -61 99 -132 184 -338 173 -415 447
-977 647 -1325 584 -1017 998 -1547 1271 -1626 112 -33 230 -2 297 77 111 133
185 443 216 909 13 199 6 1011 -11 1225 -21 272 -69 484 -145 641 -72 150
-209 263 -402 333 -66 24 -119 38 -259 66 -12 3 -25 12 -28 21 -11 28 38 116
99 182 197 213 497 308 1071 341 205 12 1022 12 1224 1z"/>
</g>
</svg>
