<?xml version="1.0" standalone="no"?>
<!DOCTYPE svg PUBLIC "-//W3C//DTD SVG 20010904//EN"
 "http://www.w3.org/TR/2001/REC-SVG-20010904/DTD/svg10.dtd">
<svg version="1.0" xmlns="http://www.w3.org/2000/svg"
 width="584.000000pt" height="585.000000pt" viewBox="0 0 584.000000 585.000000"
 preserveAspectRatio="xMidYMid meet">

<g transform="translate(0.000000,585.000000) scale(0.100000,-0.100000)"
fill="#000000" stroke="none">
<path d="M1 5243 c1 -449 4 -578 11 -495 18 230 105 473 227 633 63 83 189
203 271 259 158 107 378 181 592 198 83 7 -46 10 -494 11 l-608 1 1 -607z"/>
<path d="M4720 5839 c315 -25 551 -125 753 -318 213 -203 330 -461 356 -781 6
-72 9 88 10 503 l1 607 -612 -1 c-418 -1 -580 -4 -508 -10z"/>
<path d="M0 1523 l1 -1518 2920 0 2920 0 -2 1518 -2 1517 -384 0 -383 0 0 -74
c0 -379 -134 -818 -346 -1137 -379 -568 -990 -912 -1664 -936 -335 -12 -641
50 -955 192 l-120 55 -545 -143 c-300 -79 -546 -140 -548 -137 -1 3 63 245
143 538 l146 531 -62 123 c-135 269 -219 622 -219 921 l0 67 -450 0 -450 0 0
-1517z m5827 -435 c-2 -13 -4 -3 -4 22 0 25 2 35 4 23 2 -13 2 -33 0 -45z
m-5810 -10 c-2 -13 -4 -5 -4 17 -1 22 1 32 4 23 2 -10 2 -28 0 -40z m5800 -85
c-3 -10 -5 -4 -5 12 0 17 2 24 5 18 2 -7 2 -21 0 -30z m-5790 -5 c-3 -7 -5 -2
-5 12 0 14 2 19 5 13 2 -7 2 -19 0 -25z m5780 -50 c-3 -8 -6 -5 -6 6 -1 11 2
17 5 13 3 -3 4 -12 1 -19z m-5760 -50 c-3 -8 -6 -5 -6 6 -1 11 2 17 5 13 3 -3
4 -12 1 -19z m204 -425 c13 -16 12 -17 -3 -4 -10 7 -18 15 -18 17 0 8 8 3 21
-13z m39 -48 c13 -14 21 -25 18 -25 -2 0 -15 11 -28 25 -13 14 -21 25 -18 25
2 0 15 -11 28 -25z m5280 12 c0 -2 -12 -14 -27 -28 l-28 -24 24 28 c23 25 31
32 31 24z m-110 -110 c0 -2 -12 -14 -27 -28 l-28 -24 24 28 c23 25 31 32 31
24z m-5045 -27 c10 -11 16 -20 13 -20 -3 0 -13 9 -23 20 -10 11 -16 20 -13 20
3 0 13 -9 23 -20z m56 -47 c13 -16 12 -17 -3 -4 -17 13 -22 21 -14 21 2 0 10
-8 17 -17z m486 -209 c-3 -3 -12 -4 -19 -1 -8 3 -5 6 6 6 11 1 17 -2 13 -5z
m3950 0 c-3 -3 -12 -4 -19 -1 -8 3 -5 6 6 6 11 1 17 -2 13 -5z m-3884 -11 c-7
-2 -19 -2 -25 0 -7 3 -2 5 12 5 14 0 19 -2 13 -5z m3820 0 c-7 -2 -19 -2 -25
0 -7 3 -2 5 12 5 14 0 19 -2 13 -5z m-3705 -10 c-10 -2 -28 -2 -40 0 -13 2 -5
4 17 4 22 1 32 -1 23 -4z m3620 0 c-10 -2 -28 -2 -40 0 -13 2 -5 4 17 4 22 1
32 -1 23 -4z"/>
<path d="M1263 2915 c16 -312 87 -558 238 -820 32 -56 59 -109 59 -116 0 -8
-38 -151 -84 -319 -46 -168 -83 -306 -83 -306 1 -1 147 37 325 84 l323 85 37
-22 c80 -48 282 -141 370 -170 266 -88 603 -108 880 -51 371 75 733 289 969
573 255 307 389 652 410 1058 l6 129 -1102 0 -1102 0 53 -77 c72 -106 221
-258 326 -333 88 -64 314 -180 349 -180 31 0 58 25 159 151 l97 121 45 -5 c30
-3 118 -42 271 -118 l226 -114 0 -80 c0 -126 -26 -197 -100 -271 -68 -69 -195
-138 -284 -154 -180 -33 -397 18 -696 166 -313 154 -618 442 -870 822 l-48 72
-390 0 -390 0 6 -125z"/>
</g>
</svg>
